<svg width="19" height="18" fill="none" xmlns="http://www.w3.org/2000/svg">
    <path fill-rule="evenodd" clip-rule="evenodd" d="M9.475 0a9.001 9.001 0 0 1 0 18 9.001 9.001 0 0 1 0-18z" fill="url(#a)"/>
    <path fill-rule="evenodd" clip-rule="evenodd" d="M11.352 8.8h2.33v3.861a6.072 6.072 0 0 1-1.837.879 7.31 7.31 0 0 1-2.077.306c-.977 0-1.855-.206-2.636-.619a4.62 4.62 0 0 1-1.838-1.724C4.851 10.766 4.63 9.932 4.63 9c0-.932.222-1.766.665-2.503a4.597 4.597 0 0 1 1.85-1.724c.79-.413 1.683-.62 2.677-.62.87 0 1.65.147 2.343.44.693.293 1.27.715 1.73 1.265l-1.677 1.518c-.63-.693-1.384-1.039-2.263-1.039-.799 0-1.442.242-1.93.726-.489.484-.733 1.13-.733 1.937 0 .515.111.974.333 1.378.222.404.533.719.932.945.4.227.857.34 1.371.34.506 0 .981-.102 1.425-.306V8.8z" fill="#fff"/>
    <defs>
        <linearGradient id="a" x1=".475" y1=".127" x2=".475" y2="17.873" gradientUnits="userSpaceOnUse">
            <stop stop-color="#FF9990"/>
            <stop offset="1" stop-color="#FD5879"/>
        </linearGradient>
    </defs>
</svg>
