<svg width="15" height="15" fill="none" xmlns="http://www.w3.org/2000/svg">
    <path fill-rule="evenodd" clip-rule="evenodd" d="M7.5 0a7.5 7.5 0 0 1 0 15 7.5 7.5 0 0 1 0-15z" fill="url(#a)"/>
    <path fill-rule="evenodd" clip-rule="evenodd" d="M7.254 2.885 2.308 5.403 7.254 7.92 12.2 5.403 7.254 2.885zM3.71 6.633l-1.402.715 4.946 2.518L12.2 7.348l-1.403-.715L7.484 8.32l-.23.118-.23-.118L3.71 6.633zm-1.402 2.66L3.71 8.58l3.314 1.688.23.118.23-.118 3.313-1.688 1.403.715-4.946 2.518-4.946-2.518z" fill="#fff"/>
    <path fill-rule="evenodd" clip-rule="evenodd" d="M9.62 5.092c.05.145.034.311-.045.499-.079.187-.262.381-.55.583-.357.25-.78.38-1.27.388a2.599 2.599 0 0 1-1.365-.348l-.723-.413c-.417-.24-.648-.512-.691-.817-.043-.306.108-.58.454-.822.362-.253.738-.39 1.13-.41.393-.019.753.07 1.08.265l.01.011-.558.39a1.071 1.071 0 0 0-.564-.15.992.992 0 0 0-.549.19c-.181.127-.245.276-.193.448.053.171.21.33.467.478l.727.417c.262.15.531.232.81.246.278.015.512-.044.703-.177.14-.1.235-.186.284-.263a.33.33 0 0 0 .063-.205l-.67-.383-.568.397-.479-.274 1.162-.814 1.335.764z" fill="#826EFB"/>
    <defs>
        <linearGradient id="a" x1="0" y1="15" x2="15" y2="15" gradientUnits="userSpaceOnUse">
            <stop stop-color="#7D6FFF"/>
            <stop offset="1" stop-color="#C86DD7"/>
        </linearGradient>
    </defs>
</svg>
