<svg width="14" height="13" fill="none" xmlns="http://www.w3.org/2000/svg">
    <g clip-path="url(#a)">
        <path fill-rule="evenodd" clip-rule="evenodd" d="M.575 13c.002-.336.029-.672.08-1.005l.002-.007c.079-.498.178-1.125.537-1.683.317-.498.704-.736 1.13-.999l.006-.003a7.582 7.582 0 0 1 2.313-.946c.213-.08.42-.17.624-.272.26-.13.468-.552.434-.86a.316.316 0 0 0-.057-.117C5.097 6.27 4.77 5.34 4.586 4.353a.5.5 0 1 1-.142-.99 5.687 5.687 0 0 1 .095-1.547C4.762.813 5.394.196 6.335.058a4.03 4.03 0 0 1 1.591.046c.94.24 1.503.923 1.641 1.964.058.434.07.861.043 1.283a.5.5 0 0 1-.13.992c-.09.455-.221.904-.381 1.346-.111.309-.26.6-.409.894-.068.135-.137.27-.202.406a.532.532 0 0 0-.05.103c-.063.307.142.838.408.98.287.143.583.27.885.378.731.26 1.446.563 2.14.91.957.5 1.43 1.35 1.588 2.444.038.265.06.53.082.8.01.129.021.258.034.39L.575 13z" fill="#E20074"/>
    </g>
    <defs>
        <clipPath id="a">
            <path fill="#fff" transform="translate(.575)" d="M0 0h13v13H0z"/>
        </clipPath>
    </defs>
</svg>
